Coordinates
version=1
nRows=8
nColumns=63
inDegrees=yes

Units are S.I. units (second, meters, Newtons, ...)
If the header above contains a line with 'inDegrees', this indicates whether rotational values are in degrees (yes) or radians (no).

endheader
time	pelvis_tilt	pelvis_list	pelvis_rotation	pelvis_tx	pelvis_ty	pelvis_tz	hip_flexion_r	hip_adduction_r	hip_rotation_r	knee_angle_r	knee_angle_r_beta	ankle_angle_r	subtalar_angle_r	mtp_angle_r	hip_flexion_l	hip_adduction_l	hip_rotation_l	knee_angle_l	knee_angle_l_beta	ankle_angle_l	subtalar_angle_l	mtp_angle_l	L5_S1_Flex_Ext	L5_S1_Lat_Bending	L5_S1_axial_rotation	L4_L5_Flex_Ext	L4_L5_Lat_Bending	L4_L5_axial_rotation	L3_L4_Flex_Ext	L3_L4_Lat_Bending	L3_L4_axial_rotation	L2_L3_Flex_Ext	L2_L3_Lat_Bending	L2_L3_axial_rotation	L1_L2_Flex_Ext	L1_L2_Lat_Bending	L1_L2_axial_rotation	L1_T12_Flex_Ext	L1_T12_Lat_Bending	L1_T12_axial_rotation	Abs_r3	Abs_r2	Abs_r1	Abs_t1	Abs_t2	neck_flexion	neck_bending	neck_rotation	arm_flex_r	arm_add_r	arm_rot_r	elbow_flex_r	pro_sup_r	wrist_flex_r	wrist_dev_r	arm_flex_l	arm_add_l	arm_rot_l	elbow_flex_l	pro_sup_l	wrist_flex_l	wrist_dev_l
      0.00000000	     31.85245068	      1.65530900	   -176.20254345	     -0.10567006	      1.11169606	      0.00514821	    -35.54357149	      0.07204560	    -17.67884655	     20.97567908	      0.36609466	     24.20991722	      9.35269988	     -1.86072263	     -4.70500762	    -11.51351990	     -2.52780212	     25.61198494	      0.44701347	     26.77125813	      3.53507189	      3.62885939	     -6.20946065	      0.42423770	      0.92443250	    -11.53158938	      0.56423614	      0.98220953	    -10.20152291	      1.03149154	      0.98220953	     -7.09679258	      1.03149154	      0.80887844	     -5.76610516	      0.86510551	      0.75110141	     -3.54808582	      0.65714419	      0.69332438	    -44.35355650	      4.79906169	      5.14141624	      0.00000000	      0.00000000	     24.95115091	     -4.42896529	    -16.23452834	     49.90249026	    -31.97650204	     11.28318287	    102.10532861	     57.32983992	     -3.43435367	      1.72799465	     46.73881105	    -19.68548084	     18.13087437	    103.60724803	     68.72070463	     -7.70123353	      6.42096611
      0.08000000	     38.21271947	      3.72499043	   -179.50636276	     -0.11140485	      1.12695013	      0.01764243	    -32.93600691	     -1.99581076	    -14.64825330	     22.74902274	      0.39704535	     26.51764253	      5.58542154	     10.43376443	      0.64783845	    -10.71554939	     -1.24625987	     29.64297768	      0.51736756	     25.12954136	      1.31595923	     16.75495361	     -4.70891944	      0.46698282	      1.29321934	     -8.74493429	      0.62108715	      1.37404554	     -7.73628374	      1.13542203	      1.37404554	     -5.38182402	      1.13542203	      1.13156692	     -4.37270259	      0.95227137	      1.05074071	     -2.69067657	      0.72335639	      0.96991450	    -33.63534065	      5.28260307	      7.19249798	      0.00000000	      0.00000000	     24.18626088	     -5.30437820	    -14.96542159	     47.88641141	    -34.15108895	     11.78905251	    103.62054249	     61.44095371	     -4.97374900	      0.64368936	     42.23173197	    -21.80330829	     18.89291527	    106.36817581	     66.84275125	    -10.31096552	      7.24395051
      0.16000000	     37.78720762	      3.39147186	   -179.71901871	     -0.12050146	      1.10721881	      0.03288337	    -30.88414512	     -4.40483526	    -10.90249068	     35.43499304	      0.61845730	     22.27363265	     -8.92497974	     21.41495291	     -2.39566108	     -8.23482581	     -3.57160889	     34.59476241	      0.60379251	     26.91961771	      4.56488345	     15.24896368	     -4.54293652	      0.36033140	      1.08384795	     -8.43668740	      0.47924077	      1.15158844	     -7.46359040	      0.87610977	      1.15158844	     -5.19212214	      0.87610977	      0.94836695	     -4.21857085	      0.73478780	      0.88062646	     -2.59583393	      0.55815334	      0.81288596	    -32.44974124	      4.07614089	      6.02803712	      0.00000000	      0.00000000	     23.45968723	     -4.20581701	    -15.07798261	     44.11881357	    -33.78348523	     10.66695218	    106.92738234	     60.59206889	     -5.58060618	      2.20439568	     42.93434181	    -20.62783548	     19.89720334	    105.18919034	     66.78530894	    -11.15147966	     10.14278991
      0.24000000	     36.65143967	      3.37969917	   -179.26576010	     -0.21186812	      1.07476325	      0.05023889	    -28.05835917	     -7.68154583	     -6.32431311	     52.95096172	      0.92416862	     11.71604329	    -14.84022441	     24.25154193	    -10.82192203	     -6.89943051	     -5.57222171	     31.74935450	      0.55413077	     28.49933240	      4.57470334	     14.33401693	     -4.80798519	      0.23799689	      0.96086194	     -8.92890930	      0.31653587	      1.02091581	     -7.89903887	      0.57866564	      1.02091581	     -5.49504628	      0.57866564	      0.84075419	     -4.46469505	      0.48532326	      0.78070032	     -2.74728274	      0.36865719	      0.72064645	    -34.34295743	      2.69226844	      5.34402583	      0.00000000	      0.00000000	     22.72235348	     -3.96159403	    -14.95229302	     45.19864987	    -32.85198179	     10.67763076	    103.68807585	     60.43384605	     -5.13908715	      3.12653181	     45.29672322	    -22.62957472	     21.87678163	    102.31161516	     66.01337421	    -11.50364681	      9.58707206
      0.32000000	     36.06514447	      4.40297195	   -182.82587438	     -0.30172856	      1.03935726	      0.05650952	    -23.54523121	    -10.76323586	     -6.91074224	     56.22855354	      0.98137339	     10.17033844	    -18.58630320	     25.87932406	    -17.58803027	     -5.19166081	     -8.72619135	     29.25586115	      0.51061110	     30.50705855	      4.90161875	     13.43571958	     -4.94860631	      0.11792757	      1.12856055	     -9.19005679	      0.15684367	      1.19909559	     -8.13006531	      0.28672910	      1.19909559	     -5.65576216	      0.28672910	      0.98749048	     -4.59527582	      0.24047791	      0.91695545	     -2.82763365	      0.18266981	      0.84642041	    -35.34740004	      1.33402030	      6.27671523	      0.00000000	      0.00000000	     22.60084562	     -3.86902415	    -14.75595378	     45.32439875	    -32.60548580	     12.30856063	    102.58718638	     59.96332279	     -4.20381990	      2.52201690	     45.43310869	    -24.00111780	     21.60745462	    101.17076675	     65.42844916	    -10.17667885	      7.01887265
      0.40000000	     34.62816013	      5.98226342	   -185.41720152	     -0.31728390	      1.03023549	      0.05362492	    -20.02655466	     -8.55883854	     -7.62210402	     38.76539049	      0.67658370	     20.60108101	    -14.47740826	     24.56857292	    -21.05415730	     -6.51450396	    -11.53367319	     25.92070563	      0.45240166	     34.60450322	      7.63244760	     12.52837995	     -5.12483438	      0.22355576	      1.28180648	     -9.51732993	      0.29732916	      1.36191938	     -8.41959041	      0.54355348	      1.36191938	     -5.85717322	      0.54355348	      1.12158067	     -4.75892121	      0.45587491	      1.04146776	     -2.92833037	      0.34628787	      0.96135486	    -36.60617951	      2.52890747	      7.12902307	      0.00000000	      0.00000000	     19.88458273	     -3.62036859	    -14.79947184	     43.96870977	    -33.40271128	     10.82237028	    103.17451994	     59.71481699	     -3.04262925	      5.61381295	     42.64153614	    -24.56934169	     21.59863276	    104.02831829	     63.99823625	    -10.88539567	      8.36918948
      0.48000000	     32.69650020	      5.63053194	   -185.54620573	     -0.40916365	      1.06241741	      0.04728036	    -18.57361175	     -8.66129140	    -10.93920077	     22.05953915	      0.38501159	     25.04241153	      4.66060073	     18.27793065	    -25.30736915	     -5.86266127	    -11.27129656	     23.92337455	      0.41754165	     37.16581176	      7.06962525	     13.38460370	     -5.49793436	      0.19282127	      1.27994253	    -10.21021390	      0.25645229	      1.35993894	     -9.03255636	      0.46882564	      1.35993894	     -6.28358918	      0.46882564	      1.11994971	     -5.10538185	      0.39320113	      1.03995330	     -3.14151969	      0.29868015	      0.95995690	    -39.27119535	      2.18123277	      7.11865636	      0.00000000	      0.00000000	     16.07991015	     -2.15019083	    -14.24123026	     41.39148974	    -33.37256440	     10.32661780	    104.47631031	     57.09225765	     -5.16125514	      7.32333963	     42.80535543	    -24.55368342	     23.61611562	    104.65641622	     62.39615963	    -11.66966072	     10.33759424
      0.56000000	     32.34308192	      3.92452945	   -180.74956592	     -0.51014412	      1.06199826	      0.03862477	    -22.53782682	     -6.28605835	    -12.27289936	     19.26153512	      0.33617721	     25.03302179	      8.57358437	     16.82498883	    -30.18530386	     -7.08142436	    -12.18191967	     22.95115721	      0.40057326	     34.63076920	      8.10217712	     13.36250416	     -5.79840302	      0.19377460	      1.02551541	    -10.76821426	      0.25772022	      1.08961012	     -9.52619633	      0.47114356	      1.08961012	     -6.62699482	      0.47114356	      0.89732598	     -5.38439705	      0.39514516	      0.83323127	     -3.31320749	      0.30015685	      0.76913656	    -41.41741297	      2.19201702	      5.70360906	      0.00000000	      0.00000000	     15.39839323	     -1.48646092	    -14.90160896	     39.24493267	    -32.73820864	      7.90642335	    103.78495065	     56.54436885	     -4.81725264	      8.13554533	     43.58626640	    -24.48446039	     23.36348901	    102.93493852	     62.42767775	    -10.46868507	     13.06745066
